<?xml version="1.0" standalone="no"?>
<!DOCTYPE svg PUBLIC "-//W3C//DTD SVG 20010904//EN"
 "http://www.w3.org/TR/2001/REC-SVG-20010904/DTD/svg10.dtd">
<svg version="1.0" xmlns="http://www.w3.org/2000/svg"
 width="3000.000000pt" height="3000.000000pt" viewBox="0 0 3000.000000 3000.000000"
 preserveAspectRatio="xMidYMid meet">

<g transform="translate(0.000000,3000.000000) scale(0.100000,-0.100000)"
fill="#000000" stroke="none">
<path d="M11555 22926 c-16 -12 -51 -15 -158 -16 -109 0 -142 -3 -153 -15 -12
-11 -39 -15 -104 -15 -62 0 -90 -4 -92 -12 -3 -9 -34 -14 -91 -16 -66 -3 -87
-7 -87 -18 0 -10 -15 -14 -59 -14 -35 0 -61 -5 -63 -11 -2 -6 -28 -14 -58 -17
-30 -2 -58 -9 -61 -14 -4 -6 -28 -13 -55 -16 -27 -2 -52 -9 -55 -14 -3 -5 -25
-12 -48 -15 -22 -3 -41 -9 -41 -13 0 -4 -25 -11 -55 -15 -30 -3 -55 -10 -55
-15 0 -5 -20 -12 -45 -16 -25 -3 -45 -10 -45 -15 0 -4 -20 -11 -45 -15 -25 -3
-45 -10 -45 -15 0 -5 -14 -9 -30 -9 -17 0 -33 -6 -36 -14 -3 -7 -23 -16 -45
-20 -21 -3 -39 -11 -39 -16 0 -6 -13 -10 -29 -10 -16 0 -36 -7 -45 -15 -8 -8
-28 -15 -45 -15 -21 0 -31 -5 -31 -15 0 -9 -10 -15 -26 -15 -14 0 -32 -7 -40
-15 -9 -8 -29 -15 -45 -15 -19 0 -29 -5 -29 -15 0 -10 -10 -15 -30 -15 -20 0
-30 -5 -30 -15 0 -10 -10 -15 -30 -15 -20 0 -30 -5 -30 -15 0 -10 -10 -15 -30
-15 -16 0 -30 -4 -30 -10 0 -5 -12 -13 -27 -16 -15 -4 -34 -13 -41 -21 -7 -7
-20 -13 -28 -13 -9 0 -22 -7 -30 -15 -9 -8 -24 -15 -35 -15 -10 0 -19 -4 -19
-10 0 -5 -11 -12 -25 -16 -14 -3 -25 -10 -25 -14 0 -5 -13 -11 -30 -15 -16 -4
-30 -10 -30 -15 0 -5 -13 -11 -30 -15 -16 -4 -30 -10 -30 -15 0 -5 -13 -11
-30 -15 -16 -4 -30 -10 -30 -15 0 -4 -11 -11 -25 -14 -14 -4 -25 -11 -25 -16
0 -6 -9 -10 -20 -10 -11 0 -20 -7 -20 -15 0 -9 -9 -15 -24 -15 -13 0 -26 -7
-30 -15 -3 -8 -17 -15 -31 -15 -16 0 -25 -6 -25 -15 0 -8 -9 -15 -20 -15 -11
0 -20 -7 -20 -15 0 -9 -9 -15 -25 -15 -16 0 -25 -6 -25 -15 0 -8 -7 -15 -15
-15 -8 0 -15 -4 -15 -9 0 -5 -13 -12 -30 -16 -16 -4 -30 -13 -30 -21 0 -8 -10
-14 -25 -14 -19 0 -26 -7 -31 -27 -4 -16 -12 -32 -18 -36 -8 -6 -7 -10 2 -14
9 -4 12 -791 12 -3888 0 -3097 -3 -3885 -12 -3889 -10 -5 -10 -7 0 -12 14 -7
17 -74 2 -74 -16 0 -12 -17 6 -24 23 -9 64 4 64 20 0 8 7 14 15 14 8 0 15 5
15 10 0 6 7 10 15 10 8 0 15 6 15 14 0 8 12 17 27 21 15 3 37 17 48 30 12 12
32 26 43 30 12 3 22 11 22 16 0 5 7 9 15 9 8 0 15 7 15 15 0 8 9 15 20 15 11
0 20 7 20 15 0 9 9 15 25 15 16 0 25 6 25 15 0 8 6 15 14 15 8 0 16 7 20 15 3
8 17 15 31 15 16 0 25 6 25 15 0 8 7 15 15 15 8 0 15 4 15 9 0 5 14 12 30 16
17 4 30 13 30 21 0 8 7 14 15 14 8 0 15 4 15 9 0 5 14 12 30 16 17 4 30 11 30
16 0 5 11 11 24 15 14 3 27 12 30 20 3 8 12 14 21 14 8 0 15 4 15 9 0 5 11 12
25 15 14 4 25 10 25 15 0 5 14 12 30 16 17 4 30 11 30 16 0 5 7 9 15 9 9 0 18
7 21 15 4 8 17 15 30 15 15 0 24 6 24 15 0 10 10 15 30 15 20 0 30 5 30 15 0
10 10 15 30 15 20 0 30 5 30 15 0 9 9 15 24 15 13 0 26 7 30 15 3 8 16 15 30
15 13 0 26 7 30 15 3 8 16 15 30 15 13 0 26 7 30 15 3 8 17 15 31 15 14 0 25
4 25 9 0 5 14 12 30 16 17 4 30 11 30 16 0 5 18 12 40 15 22 4 40 10 40 15 0
4 16 11 35 15 19 3 35 10 35 15 0 5 18 12 40 15 22 4 40 10 40 14 0 5 14 11
30 15 17 4 30 11 30 16 0 5 14 9 30 9 18 0 33 6 36 15 4 10 20 15 45 15 28 0
39 4 39 15 0 11 12 15 45 15 33 0 45 4 45 15 0 11 12 15 45 15 33 0 45 4 45
15 0 12 13 15 55 15 42 0 55 3 55 15 0 11 12 15 44 15 25 0 46 5 48 12 2 6 32
13 69 16 40 3 67 10 72 18 6 10 29 14 77 14 45 0 70 4 72 12 3 8 34 14 89 16
46 3 87 9 91 15 4 6 57 13 130 15 76 3 126 9 130 16 10 16 626 16 636 -1 4 -7
49 -12 121 -15 80 -2 116 -7 119 -15 2 -9 27 -13 77 -13 52 0 78 -4 89 -15 8
-9 33 -15 60 -15 26 0 51 -6 60 -15 9 -10 34 -15 70 -15 43 0 56 -3 56 -15 0
-12 13 -15 60 -15 47 0 60 -3 60 -15 0 -12 13 -15 55 -15 42 0 55 -3 55 -15 0
-11 12 -15 44 -15 30 0 46 -5 50 -15 3 -8 17 -15 31 -15 15 0 33 -7 41 -15 9
-8 28 -15 44 -15 16 0 30 -5 32 -11 2 -5 22 -13 46 -16 23 -3 42 -9 42 -14 0
-4 14 -10 30 -14 17 -4 30 -10 30 -15 0 -4 18 -10 40 -14 22 -3 40 -10 40 -15
0 -5 19 -11 41 -14 23 -3 45 -10 48 -15 3 -6 19 -14 34 -17 15 -4 27 -11 27
-15 0 -5 14 -11 30 -15 17 -4 30 -11 30 -16 0 -5 11 -9 25 -9 14 0 28 -7 31
-15 4 -8 17 -15 30 -15 14 0 27 -7 30 -15 4 -9 19 -15 35 -15 19 0 29 -5 29
-15 0 -9 9 -15 25 -15 14 0 28 -7 31 -15 4 -8 17 -15 30 -15 15 0 24 -6 24
-15 0 -10 10 -15 30 -15 20 0 30 -5 30 -15 0 -10 10 -15 30 -15 20 0 30 -5 30
-15 0 -10 10 -15 30 -15 20 0 30 -5 30 -15 0 -9 9 -15 24 -15 13 0 26 -7 30
-15 3 -8 12 -15 21 -15 8 0 15 -4 15 -9 0 -5 14 -12 30 -16 17 -4 30 -10 30
-15 0 -4 11 -11 25 -14 14 -4 25 -11 25 -16 0 -6 9 -10 19 -10 11 0 26 -6 33
-13 7 -7 21 -16 31 -20 9 -3 17 -11 17 -17 0 -5 11 -10 25 -10 16 0 25 -6 25
-15 0 -10 10 -15 30 -15 19 0 30 -5 30 -14 0 -8 11 -17 25 -20 14 -4 25 -11
25 -16 0 -6 9 -10 20 -10 11 0 20 -7 20 -15 0 -10 10 -15 30 -15 20 0 30 -5
30 -15 0 -9 9 -15 25 -15 16 0 25 -6 25 -15 0 -10 10 -15 30 -15 20 0 30 -5
30 -15 0 -8 7 -15 15 -15 8 0 15 -4 15 -9 0 -5 14 -12 30 -16 17 -4 30 -13 30
-21 0 -8 10 -14 24 -14 13 0 26 -7 30 -15 3 -8 12 -15 21 -15 8 0 15 -4 15 -9
0 -5 14 -12 30 -16 17 -4 30 -10 30 -15 0 -4 11 -11 25 -14 14 -4 25 -11 25
-16 0 -6 9 -10 19 -10 11 0 26 -7 34 -15 8 -7 26 -17 41 -21 14 -3 26 -10 26
-15 0 -5 7 -9 15 -9 9 0 18 -6 21 -14 3 -7 23 -16 45 -20 21 -3 39 -11 39 -16
0 -6 7 -10 15 -10 8 0 15 -7 15 -15 0 -10 10 -15 30 -15 20 0 30 -5 30 -15 0
-10 10 -15 30 -15 20 0 30 -5 30 -15 0 -10 10 -15 30 -15 20 0 30 -5 30 -15 0
-9 9 -15 24 -15 13 0 26 -7 30 -15 3 -8 17 -15 31 -15 14 0 25 -4 25 -9 0 -5
14 -12 30 -16 17 -4 30 -10 30 -15 0 -5 14 -11 30 -15 17 -4 30 -10 30 -15 0
-4 11 -11 25 -14 24 -6 36 -26 15 -26 -5 0 -10 -7 -10 -15 0 -8 -7 -15 -15
-15 -8 0 -15 -7 -15 -15 0 -8 -7 -15 -15 -15 -8 0 -15 -7 -15 -15 0 -8 -7 -15
-15 -15 -8 0 -15 -7 -15 -15 0 -8 -7 -15 -15 -15 -8 0 -15 -6 -15 -14 0 -8
-11 -17 -25 -20 -14 -4 -25 -11 -25 -16 0 -6 -7 -10 -15 -10 -8 0 -15 -7 -15
-15 0 -8 -7 -15 -15 -15 -8 0 -15 -7 -15 -15 0 -8 -4 -15 -10 -15 -5 0 -34
-25 -64 -55 -29 -30 -57 -55 -61 -55 -4 0 -30 -22 -57 -50 -27 -27 -56 -50
-64 -50 -7 0 -14 -7 -14 -15 0 -8 -5 -15 -11 -15 -7 0 -22 -11 -35 -25 -13
-14 -28 -25 -34 -25 -5 0 -10 -7 -10 -15 0 -8 -7 -15 -15 -15 -8 0 -15 -7 -15
-15 0 -8 -7 -15 -15 -15 -8 0 -15 -7 -15 -15 0 -8 -7 -15 -15 -15 -8 0 -15 -7
-15 -15 0 -9 -9 -15 -25 -15 -16 0 -25 -6 -25 -15 0 -8 -7 -15 -15 -15 -8 0
-15 -7 -15 -15 0 -8 -7 -15 -15 -15 -8 0 -15 -7 -15 -15 0 -8 -7 -15 -15 -15
-8 0 -15 -7 -15 -15 0 -8 -5 -15 -10 -15 -6 0 -21 -11 -34 -25 -13 -14 -28
-25 -35 -25 -6 0 -11 -7 -11 -15 0 -8 -7 -15 -15 -15 -8 0 -15 -7 -15 -15 0
-8 -7 -15 -15 -15 -8 0 -15 -6 -15 -14 0 -8 -11 -17 -25 -20 -14 -4 -25 -11
-25 -16 0 -6 -7 -10 -15 -10 -8 0 -15 -7 -15 -15 0 -8 -7 -15 -15 -15 -8 0
-15 -7 -15 -15 0 -8 -7 -15 -15 -15 -9 0 -18 -7 -21 -15 -4 -8 -12 -15 -20
-15 -8 0 -14 7 -14 15 0 9 -9 15 -25 15 -16 0 -25 6 -25 15 0 10 -10 15 -30
15 -20 0 -30 5 -30 15 0 10 -10 15 -29 15 -16 0 -31 6 -33 13 -4 9 -39 12
-133 12 -94 0 -129 -3 -132 -12 -3 -7 -17 -13 -33 -13 -16 0 -35 -7 -44 -15
-16 -17 -36 -20 -36 -6 0 5 -13 12 -30 16 -16 4 -30 13 -30 21 0 8 -4 14 -10
14 -5 0 -12 11 -16 25 -3 14 -12 25 -20 25 -8 0 -14 7 -14 15 0 8 -7 15 -15
15 -8 0 -15 5 -15 10 0 6 -11 21 -25 34 -14 13 -25 27 -25 31 0 4 -16 23 -35
42 -19 19 -35 40 -35 48 0 8 -7 15 -15 15 -8 0 -15 5 -15 11 0 7 -11 22 -25
35 -14 13 -25 28 -25 34 0 5 -7 10 -15 10 -8 0 -15 7 -15 15 0 8 -7 15 -15 15
-8 0 -15 7 -15 15 0 8 -6 15 -14 15 -8 0 -17 11 -20 25 -4 14 -11 25 -16 25
-6 0 -10 7 -10 15 0 8 -7 15 -15 15 -8 0 -15 7 -15 15 0 8 -7 15 -15 15 -8 0
-15 7 -15 15 0 8 -7 15 -15 15 -8 0 -15 5 -15 10 0 6 -11 21 -25 34 -14 13
-25 28 -25 35 0 6 -6 11 -14 11 -8 0 -17 14 -21 30 -4 17 -13 30 -21 30 -8 0
-14 7 -14 15 0 8 -7 15 -15 15 -8 0 -15 5 -15 11 0 7 -11 22 -25 35 -14 13
-25 28 -25 34 0 5 -7 10 -15 10 -8 0 -15 7 -15 15 0 8 -7 15 -15 15 -8 0 -15
7 -15 15 0 8 -6 15 -14 15 -8 0 -17 11 -20 25 -4 14 -11 25 -16 25 -6 0 -10 7
-10 15 0 8 -7 15 -15 15 -8 0 -15 7 -15 15 0 8 -7 15 -15 15 -8 0 -15 7 -15
15 0 8 -7 15 -15 15 -8 0 -15 7 -15 15 0 8 -7 15 -15 15 -8 0 -15 7 -15 15 0
8 -4 15 -10 15 -5 0 -10 7 -10 15 0 8 -7 15 -15 15 -8 0 -15 7 -15 15 0 8 -16
29 -35 48 -19 19 -35 37 -35 42 0 4 -18 25 -40 46 -22 22 -40 43 -40 49 0 5
-7 10 -15 10 -8 0 -15 7 -15 15 0 8 -7 15 -15 15 -9 0 -15 9 -15 25 0 16 -6
25 -15 25 -8 0 -15 7 -15 15 0 8 -7 15 -15 15 -8 0 -15 7 -15 15 0 8 -7 15
-15 15 -8 0 -15 7 -15 15 0 8 -7 15 -15 15 -8 0 -15 7 -15 15 0 8 -7 15 -15
15 -8 0 -15 5 -15 11 0 7 -11 22 -25 35 -14 13 -25 28 -25 34 0 5 -6 10 -14
10 -8 0 -17 12 -21 27 -3 15 -12 31 -18 35 -9 6 -9 10 -1 16 6 4 15 18 19 32
4 14 13 28 19 32 16 10 15 306 -1 316 -6 4 -15 20 -18 35 -4 15 -11 27 -16 27
-5 0 -9 5 -9 11 0 15 -95 109 -109 109 -6 0 -11 7 -11 15 0 8 -7 15 -15 15 -9
0 -18 7 -21 15 -4 8 -17 15 -30 15 -15 0 -24 6 -24 15 0 12 -13 15 -55 15 -40
0 -57 4 -61 15 -5 12 -25 15 -90 15 -68 0 -84 -3 -84 -15 0 -11 -12 -15 -45
-15 -33 0 -45 -4 -45 -15 0 -8 -7 -15 -15 -15 -8 0 -15 -4 -15 -9 0 -5 -13
-12 -30 -16 -16 -4 -30 -13 -30 -21 0 -8 -7 -14 -15 -14 -8 0 -15 -7 -15 -15
0 -8 -7 -15 -15 -15 -8 0 -15 -7 -15 -15 0 -8 -4 -15 -10 -15 -5 0 -12 -11
-16 -24 -3 -14 -12 -27 -20 -30 -8 -3 -14 -16 -14 -30 0 -13 -5 -26 -11 -28
-5 -2 -13 -22 -16 -46 -3 -23 -10 -42 -14 -42 -5 0 -9 -34 -9 -75 0 -41 4 -75
9 -75 5 0 12 -25 16 -55 3 -30 11 -55 16 -55 5 0 9 -13 9 -30 0 -16 -4 -30 -9
-30 -5 0 -12 -12 -15 -26 -4 -14 -18 -36 -31 -48 -13 -12 -27 -34 -30 -49 -4
-15 -11 -27 -16 -27 -5 0 -9 -7 -9 -15 0 -8 -7 -15 -15 -15 -9 0 -15 -9 -15
-25 0 -14 -7 -28 -15 -31 -8 -4 -15 -12 -15 -20 0 -8 -7 -14 -15 -14 -9 0 -15
-9 -15 -25 0 -14 -7 -28 -15 -31 -8 -4 -15 -17 -15 -30 0 -15 -6 -24 -15 -24
-8 0 -15 -6 -15 -14 0 -8 -7 -16 -15 -20 -8 -3 -15 -17 -15 -31 0 -16 -6 -25
-15 -25 -8 0 -15 -7 -15 -15 0 -8 -4 -15 -9 -15 -5 0 -12 -13 -16 -30 -4 -16
-13 -30 -21 -30 -8 0 -14 -7 -14 -15 0 -8 -4 -15 -9 -15 -5 0 -12 -12 -16 -27
-3 -15 -17 -37 -30 -48 -12 -12 -26 -32 -30 -43 -3 -12 -11 -22 -16 -22 -5 0
-9 -7 -9 -15 0 -9 -7 -18 -15 -21 -8 -4 -15 -17 -15 -30 0 -15 -6 -24 -15 -24
-8 0 -15 -7 -15 -15 0 -9 -7 -18 -15 -21 -8 -4 -15 -17 -15 -30 0 -15 -6 -24
-15 -24 -8 0 -15 -7 -15 -15 0 -8 -7 -15 -15 -15 -10 0 -15 -10 -15 -30 0 -20
-5 -30 -15 -30 -8 0 -15 -7 -15 -15 0 -8 -7 -15 -15 -15 -10 0 -15 -10 -15
-30 0 -20 -5 -30 -15 -30 -8 0 -15 -7 -15 -15 0 -8 -4 -15 -10 -15 -5 0 -12
-11 -16 -24 -3 -14 -12 -27 -20 -30 -8 -3 -14 -12 -14 -21 0 -8 -4 -15 -10
-15 -5 0 -12 -11 -16 -25 -3 -14 -10 -25 -14 -25 -4 0 -11 -12 -14 -26 -4 -14
-18 -36 -31 -48 -13 -12 -27 -34 -30 -49 -4 -15 -11 -27 -16 -27 -5 0 -9 -7
-9 -15 0 -8 -6 -15 -14 -15 -8 0 -17 -11 -20 -25 -4 -14 -11 -25 -16 -25 -6 0
-10 -9 -10 -20 0 -11 -7 -20 -15 -20 -9 0 -15 -9 -15 -25 0 -16 -6 -25 -15
-25 -8 0 -15 -9 -15 -20 0 -11 -7 -20 -15 -20 -9 0 -15 -9 -15 -25 0 -16 -6
-25 -15 -25 -8 0 -15 -9 -15 -20 0 -11 -4 -20 -10 -20 -5 0 -12 -11 -16 -24
-3 -14 -12 -27 -20 -30 -8 -3 -14 -17 -14 -31 0 -16 -6 -25 -15 -25 -8 0 -15
-7 -15 -15 0 -8 -4 -15 -10 -15 -5 0 -10 -7 -10 -15 0 -8 -9 -23 -20 -32 -11
-10 -20 -23 -20 -30 0 -7 -4 -13 -9 -13 -5 0 -12 -11 -15 -25 -4 -14 -11 -25
-16 -25 -6 0 -10 -7 -10 -15 0 -9 -6 -18 -14 -21 -8 -3 -17 -16 -20 -30 -4
-13 -11 -24 -16 -24 -6 0 -10 -7 -10 -15 0 -9 -7 -18 -15 -21 -8 -4 -15 -17
-15 -30 0 -14 -6 -24 -14 -24 -10 0 -15 25 -21 100 -3 55 -11 100 -16 100 -5
0 -9 60 -9 135 l0 135 -40 0 c-22 0 -40 5 -40 10 0 6 -16 10 -35 10 -19 0 -35
-4 -35 -10 0 -5 -11 -10 -24 -10 -19 0 -26 -7 -31 -32 -4 -18 -13 -37 -19 -41
-8 -6 -8 -10 2 -14 15 -6 18 -613 2 -613 -6 0 -10 -45 -10 -115 0 -125 11
-155 56 -155 12 0 24 -5 26 -12 2 -6 30 -13 61 -16 48 -4 57 -2 57 12 0 9 7
16 15 16 8 0 15 7 15 15 0 8 7 15 15 15 8 0 15 7 15 15 0 8 7 15 15 15 10 0
15 10 15 30 0 20 5 30 15 30 8 0 15 7 15 15 0 8 4 15 9 15 5 0 12 13 16 30 4
16 11 30 16 30 5 0 11 11 15 24 3 14 12 27 20 30 8 3 14 12 14 21 0 8 4 15 10
15 5 0 12 11 16 25 3 14 10 25 15 25 5 0 9 7 9 15 0 8 6 15 14 15 8 0 17 14
21 30 4 17 11 30 16 30 5 0 9 7 9 15 0 8 7 15 15 15 10 0 15 10 15 30 0 19 5
30 14 30 8 0 17 11 20 25 4 14 11 25 16 25 6 0 10 9 10 20 0 11 7 20 15 20 9
0 15 9 15 25 0 16 6 25 15 25 8 0 15 9 15 20 0 11 7 20 15 20 9 0 15 9 15 25
0 16 6 25 15 25 8 0 15 9 15 20 0 11 4 20 10 20 5 0 12 11 16 25 3 14 10 25
15 25 5 0 9 7 9 15 0 8 9 23 20 32 11 10 20 23 20 30 0 7 4 13 9 13 5 0 12 11
15 25 4 14 11 25 16 25 6 0 10 7 10 15 0 9 6 18 14 21 8 3 17 16 20 30 4 13
11 24 16 24 6 0 10 7 10 15 0 9 7 18 15 21 8 4 15 17 15 30 0 15 6 24 15 24 8
0 15 7 15 15 0 8 7 15 15 15 10 0 15 10 15 30 0 20 5 30 15 30 8 0 15 7 15 15
0 8 7 15 15 15 10 0 15 10 15 30 0 20 5 30 15 30 9 0 15 9 15 25 0 16 6 25 15
25 8 0 15 9 15 20 0 11 7 20 15 20 9 0 15 9 15 24 0 13 7 26 15 30 8 3 15 12
15 21 0 8 4 15 9 15 5 0 13 10 16 22 4 11 18 31 30 43 13 11 27 33 30 48 4 15
11 27 16 27 5 0 9 7 9 15 0 8 6 15 14 15 8 0 17 14 21 30 4 17 11 30 16 30 5
0 9 7 9 15 0 8 7 15 15 15 9 0 15 9 15 25 0 16 6 25 15 25 8 0 15 9 15 20 0
11 7 20 15 20 9 0 15 9 15 25 0 16 6 25 15 25 8 0 15 9 15 20 0 11 7 20 15 20
9 0 15 9 15 25 0 16 6 25 15 25 8 0 15 7 15 15 0 8 4 15 9 15 5 0 12 14 16 30
4 17 13 30 21 30 8 0 14 7 14 15 0 8 4 15 9 15 5 0 12 12 16 27 3 15 17 37 30
49 13 12 27 34 31 48 3 14 10 26 14 26 4 0 11 11 14 25 4 14 11 25 16 25 6 0
10 7 10 15 0 9 7 18 15 21 8 4 15 17 15 30 0 15 6 24 15 24 8 0 15 6 15 13 0
6 10 21 23 33 17 16 31 20 60 16 23 -2 37 -9 37 -18 0 -10 15 -14 60 -14 33 0
60 -4 60 -10 0 -5 18 -10 40 -10 22 0 40 4 40 9 0 5 32 11 72 13 44 2 73 9 76
16 6 18 62 15 62 -3 0 -8 7 -15 15 -15 8 0 15 -7 15 -15 0 -8 7 -15 15 -15 8
0 15 -7 15 -15 0 -8 7 -15 15 -15 8 0 15 -7 15 -15 0 -8 7 -15 15 -15 8 0 15
-5 15 -11 0 -6 20 -31 45 -56 25 -24 45 -49 45 -54 0 -5 18 -26 40 -48 22 -21
40 -44 40 -50 0 -6 7 -11 15 -11 8 0 15 -7 15 -15 0 -8 7 -15 15 -15 8 0 15
-7 15 -15 0 -8 7 -15 15 -15 8 0 15 -7 15 -15 0 -8 7 -15 15 -15 8 0 15 -7 15
-15 0 -8 4 -15 10 -15 5 0 12 -11 16 -25 3 -14 12 -25 20 -25 8 0 14 -5 14
-10 0 -6 20 -30 45 -53 25 -24 45 -47 45 -51 0 -4 14 -21 30 -38 17 -16 30
-36 30 -44 0 -8 7 -14 15 -14 8 0 15 -5 15 -10 0 -6 11 -21 25 -34 14 -13 25
-28 25 -35 0 -6 7 -11 15 -11 8 0 15 -7 15 -15 0 -8 7 -15 15 -15 8 0 15 -7
15 -15 0 -8 7 -15 15 -15 8 0 15 -7 15 -15 0 -8 7 -15 15 -15 9 0 15 -9 15
-25 0 -16 6 -25 15 -25 8 0 15 -7 15 -15 0 -8 7 -15 15 -15 8 0 15 -5 15 -10
0 -6 18 -27 40 -49 22 -21 40 -44 40 -50 0 -6 7 -11 15 -11 8 0 15 -6 15 -13
0 -7 9 -20 20 -30 11 -9 20 -24 20 -32 0 -8 7 -15 15 -15 8 0 15 -7 15 -15 0
-8 7 -15 15 -15 8 0 15 -7 15 -15 0 -8 5 -15 10 -15 6 0 10 -7 10 -15 0 -8 7
-15 15 -15 8 0 15 -7 15 -15 0 -8 7 -15 15 -15 8 0 15 -7 15 -15 0 -8 7 -15
15 -15 8 0 15 -7 15 -15 0 -8 7 -15 15 -15 9 0 15 -9 15 -25 0 -16 6 -25 15
-25 8 0 15 -7 15 -15 0 -8 7 -15 15 -15 8 0 15 -7 15 -15 0 -8 7 -15 15 -15 8
0 15 -7 15 -15 0 -8 5 -15 10 -15 6 0 10 -5 10 -11 0 -7 16 -27 35 -46 19 -19
35 -40 35 -48 0 -8 7 -15 15 -15 8 0 15 -7 15 -15 0 -8 7 -15 15 -15 8 0 15
-7 15 -15 0 -8 5 -15 10 -15 14 0 12 -78 -2 -82 -7 -3 -14 -32 -16 -76 -2 -40
-8 -72 -13 -72 -5 0 -9 -7 -9 -15 0 -8 4 -15 9 -15 5 0 11 -26 13 -57 3 -31
10 -59 16 -61 7 -2 12 -16 12 -32 0 -16 7 -35 15 -44 8 -8 15 -22 15 -30 0 -9
7 -16 15 -16 8 0 15 -6 15 -14 0 -20 69 -86 103 -99 9 -3 17 -11 17 -16 0 -5
14 -12 30 -16 17 -4 30 -11 30 -16 0 -5 13 -9 29 -9 16 0 36 -7 45 -15 22 -22
246 -22 246 0 0 11 11 15 39 15 25 0 41 5 45 15 3 8 12 15 21 15 8 0 15 4 15
9 0 5 9 13 21 16 26 9 99 83 99 101 0 8 5 14 10 14 6 0 10 7 10 15 0 8 7 15
15 15 10 0 15 10 15 30 0 16 6 33 14 37 8 5 15 37 20 88 3 44 11 82 16 83 16
6 12 49 -5 56 -17 6 -22 96 -5 96 6 0 21 11 34 25 13 14 28 25 35 25 6 0 11 7
11 15 0 8 7 15 15 15 8 0 15 7 15 15 0 8 7 15 15 15 8 0 15 7 15 15 0 8 7 15
15 15 8 0 15 7 15 15 0 8 7 15 15 15 8 0 15 7 15 15 0 8 7 15 15 15 8 0 15 4
15 10 0 5 11 12 25 16 14 3 25 12 25 20 0 8 5 14 10 14 6 0 27 18 49 40 21 22
44 40 50 40 6 0 11 7 11 15 0 8 7 15 15 15 8 0 15 7 15 15 0 8 7 15 15 15 8 0
15 7 15 15 0 8 6 15 14 15 8 0 28 14 44 30 17 17 34 30 39 30 5 0 20 13 33 30
14 16 31 29 38 30 6 0 12 7 12 15 0 8 7 15 15 15 8 0 15 7 15 15 0 8 7 15 15
15 8 0 15 7 15 15 0 8 5 15 11 15 6 0 24 13 41 30 16 16 36 30 44 30 8 0 14 7
14 15 0 8 7 15 15 15 8 0 15 7 15 15 0 8 5 15 10 15 6 0 21 11 34 25 13 14 28
25 35 25 6 0 11 7 11 15 0 8 7 15 15 15 8 0 15 7 15 15 0 8 7 15 15 15 8 0 15
7 15 15 0 8 7 15 15 15 8 0 15 7 15 15 0 8 7 15 15 15 8 0 15 7 15 15 0 9 9
15 25 15 16 0 25 6 25 15 0 8 7 15 15 15 8 0 15 7 15 15 0 8 7 15 15 15 8 0
15 7 15 15 0 8 7 15 15 15 8 0 15 7 15 15 0 12 13 15 60 15 47 0 60 -3 60 -15
0 -11 12 -15 45 -15 33 0 45 -4 45 -15 0 -10 10 -15 30 -15 20 0 30 -5 30 -15
0 -11 11 -15 40 -15 29 0 40 -4 40 -15 0 -10 10 -15 30 -15 20 0 30 -5 30 -15
0 -10 10 -15 30 -15 17 0 30 -4 30 -9 0 -5 12 -12 27 -16 15 -3 31 -11 34 -17
3 -5 25 -12 48 -15 22 -3 41 -9 41 -14 0 -4 14 -10 30 -14 17 -4 30 -11 30
-16 0 -5 18 -12 40 -15 22 -4 40 -10 40 -14 0 -4 16 -11 35 -14 19 -4 35 -11
35 -15 0 -5 18 -11 40 -15 22 -3 40 -11 40 -16 0 -6 14 -10 30 -10 19 0 30 -5
30 -14 0 -8 16 -16 42 -19 24 -3 44 -11 46 -16 2 -6 17 -11 33 -11 19 0 29 -5
29 -15 0 -11 11 -15 40 -15 27 0 43 -5 46 -15 4 -10 20 -15 45 -15 28 0 39 -4
39 -15 0 -11 12 -15 45 -15 33 0 45 -4 45 -15 0 -11 12 -15 45 -15 33 0 45 -4
45 -15 0 -11 11 -15 39 -15 25 0 41 -5 45 -15 3 -10 19 -15 45 -15 22 0 41 -5
43 -11 2 -6 25 -13 51 -16 26 -3 47 -9 47 -14 0 -4 25 -11 55 -14 30 -4 55
-11 55 -15 0 -4 27 -11 60 -15 33 -4 60 -11 60 -15 0 -4 27 -11 60 -15 33 -4
60 -10 60 -15 0 -4 30 -10 66 -12 36 -2 68 -9 72 -15 4 -5 43 -13 86 -16 43
-3 82 -10 85 -15 3 -5 43 -11 89 -13 47 -3 86 -9 90 -16 4 -7 48 -12 115 -15
68 -2 110 -7 115 -15 5 -7 52 -12 136 -15 92 -2 131 -7 134 -15 2 -9 33 -13
108 -13 86 0 104 -3 104 -15 0 -8 5 -15 10 -15 6 0 10 -20 10 -44 0 -25 6 -51
13 -58 8 -7 17 -26 21 -41 3 -15 11 -27 16 -27 6 0 10 -7 10 -15 0 -9 7 -18
15 -21 8 -4 15 -12 15 -20 0 -8 7 -14 15 -14 8 0 15 -7 15 -15 0 -8 7 -15 15
-15 8 0 15 -4 15 -10 0 -5 7 -10 15 -10 8 0 15 -7 15 -15 0 -9 9 -15 25 -15
14 0 28 -7 31 -15 4 -8 18 -15 34 -15 16 0 35 -7 44 -15 11 -12 42 -15 145
-15 110 0 131 2 131 15 0 10 10 15 30 15 20 0 30 5 30 15 0 9 9 15 24 15 13 0
26 7 30 15 3 8 12 15 21 15 8 0 15 5 15 11 0 6 14 24 30 41 17 16 30 34 30 39
0 6 11 20 25 33 15 14 25 34 25 50 0 15 6 29 14 32 10 4 16 36 21 117 5 76 12
115 22 125 8 9 37 17 64 20 27 2 49 8 49 13 0 5 23 11 50 15 28 4 50 10 50 15
0 5 18 12 40 15 22 4 40 10 40 14 0 4 19 10 41 13 23 3 45 10 48 15 3 5 24 12
46 15 22 4 41 11 43 17 2 5 17 10 33 10 19 0 29 5 29 15 0 11 11 15 40 15 27
0 43 5 46 15 4 9 19 15 35 15 19 0 29 5 29 15 0 11 11 15 40 15 29 0 40 4 40
15 0 10 10 15 30 15 20 0 30 5 30 15 0 10 10 15 30 15 20 0 30 5 30 15 0 10
10 15 30 15 20 0 30 5 30 15 0 9 10 15 26 15 14 0 32 7 40 15 9 8 24 15 35 15
10 0 19 4 19 9 0 5 14 12 30 16 17 4 30 10 30 15 0 5 14 11 30 15 17 4 30 11
30 16 0 5 11 11 25 15 14 3 25 10 25 14 0 5 14 11 30 15 17 4 30 11 30 16 0 5
7 9 15 9 8 0 15 7 15 15 0 10 10 15 30 15 19 0 30 5 30 14 0 8 11 17 25 20 14
4 25 11 25 16 0 6 9 10 20 10 11 0 20 7 20 15 0 8 7 15 15 15 8 0 15 7 15 15
0 9 9 15 25 15 16 0 25 6 25 15 0 8 9 15 20 15 11 0 20 4 20 10 0 5 11 12 25
16 l25 6 0 3939 c0 2699 -3 3939 -10 3939 -6 0 -13 -7 -16 -15 -4 -8 -17 -15
-30 -15 -15 0 -24 -6 -24 -15 0 -8 -9 -15 -20 -15 -11 0 -20 -7 -20 -15 0 -9
-9 -15 -25 -15 -16 0 -25 -6 -25 -15 0 -10 -10 -15 -30 -15 -20 0 -30 -5 -30
-15 0 -8 -7 -15 -15 -15 -8 0 -15 -4 -15 -9 0 -5 -12 -12 -26 -15 -15 -4 -33
-14 -41 -21 -8 -8 -23 -15 -34 -15 -10 0 -19 -7 -19 -15 0 -9 -9 -15 -24 -15
-13 0 -26 -7 -30 -15 -3 -8 -12 -15 -21 -15 -8 0 -15 -4 -15 -9 0 -5 -13 -12
-30 -16 -16 -4 -30 -11 -30 -16 0 -5 -11 -9 -25 -9 -16 0 -25 -6 -25 -15 0
-10 -10 -15 -30 -15 -20 0 -30 -5 -30 -15 0 -10 -10 -15 -30 -15 -20 0 -30 -5
-30 -15 0 -10 -10 -15 -30 -15 -20 0 -30 -5 -30 -15 0 -10 -10 -15 -30 -15
-20 0 -30 -5 -30 -15 0 -11 -11 -15 -40 -15 -29 0 -40 -4 -40 -15 0 -10 -10
-15 -29 -15 -16 0 -31 -6 -35 -15 -3 -8 -17 -15 -31 -15 -15 0 -33 -7 -41 -15
-9 -8 -29 -15 -45 -15 -19 0 -29 -5 -29 -15 0 -11 -11 -15 -39 -15 -25 0 -41
-5 -45 -15 -3 -10 -19 -15 -45 -15 -25 0 -41 -5 -45 -15 -3 -9 -18 -15 -36
-15 -16 0 -30 -4 -30 -9 0 -5 -24 -12 -52 -16 -29 -4 -56 -12 -59 -17 -3 -5
-25 -12 -48 -15 -22 -3 -41 -9 -41 -13 0 -5 -27 -11 -60 -15 -33 -4 -60 -10
-60 -15 0 -4 -31 -11 -70 -14 -38 -4 -70 -11 -70 -15 0 -5 -33 -11 -72 -14
-40 -4 -74 -11 -76 -17 -2 -5 -34 -10 -73 -10 -53 0 -71 -4 -75 -15 -5 -12
-30 -15 -135 -15 -108 0 -129 -2 -129 -15 0 -13 -50 -15 -394 -15 -307 0 -395
3 -398 13 -3 8 -44 13 -144 15 -107 3 -141 7 -147 18 -6 10 -30 14 -92 14 -55
0 -85 4 -87 12 -2 6 -32 13 -69 16 -35 3 -67 9 -70 14 -3 5 -31 12 -62 15 -32
3 -57 9 -57 13 0 5 -27 11 -60 15 -33 4 -60 11 -60 15 0 4 -25 11 -55 15 -30
3 -55 10 -55 14 0 5 -21 11 -47 14 -26 3 -49 10 -51 16 -2 6 -21 11 -43 11
-26 0 -42 5 -45 15 -4 10 -20 15 -45 15 -26 0 -42 5 -45 15 -4 10 -20 15 -45
15 -28 0 -39 4 -39 15 0 11 -12 15 -45 15 -33 0 -45 4 -45 15 0 11 -11 15 -40
15 -29 0 -40 4 -40 15 0 10 -11 15 -35 15 -24 0 -35 5 -35 15 0 11 -11 15 -40
15 -29 0 -40 4 -40 15 0 10 -10 15 -29 15 -16 0 -31 5 -33 11 -2 5 -22 13 -46
16 -26 3 -42 11 -42 19 0 9 -11 14 -30 14 -20 0 -30 5 -30 15 0 9 -10 15 -26
15 -14 0 -32 7 -40 15 -9 8 -24 15 -35 15 -10 0 -19 4 -19 9 0 5 -13 12 -30
16 -16 4 -30 10 -30 15 0 5 -13 11 -30 15 -16 4 -30 11 -30 16 0 5 -11 9 -25
9 -16 0 -25 6 -25 15 0 10 -10 15 -30 15 -20 0 -30 5 -30 15 0 10 -10 15 -30
15 -20 0 -30 5 -30 15 0 10 -10 15 -30 15 -20 0 -30 5 -30 15 0 10 -10 15 -30
15 -20 0 -30 5 -30 15 0 10 -10 15 -30 15 -20 0 -30 5 -30 15 0 9 -9 15 -25
15 -16 0 -25 6 -25 15 0 10 -10 15 -30 15 -20 0 -30 5 -30 15 0 10 -10 15 -30
15 -20 0 -30 5 -30 15 0 10 -10 15 -30 15 -20 0 -30 5 -30 15 0 8 -7 15 -15
15 -8 0 -15 4 -15 9 0 5 -13 12 -30 16 -16 4 -30 10 -30 15 0 5 -13 11 -30 15
-16 4 -30 10 -30 15 0 4 -11 11 -25 14 -14 4 -25 10 -25 15 0 5 -13 12 -30 16
-16 4 -30 11 -30 16 0 5 -7 9 -15 9 -8 0 -15 7 -15 15 0 10 -10 15 -30 15 -20
0 -30 5 -30 15 0 9 -9 15 -25 15 -14 0 -28 7 -31 15 -4 8 -12 15 -20 15 -8 0
-14 7 -14 15 0 10 -10 15 -30 15 -20 0 -30 5 -30 15 0 10 -10 15 -30 15 -20 0
-30 5 -30 15 0 9 -9 15 -25 15 -16 0 -25 6 -25 15 0 8 -9 15 -20 15 -11 0 -20
4 -20 10 0 5 -11 12 -25 16 -14 3 -25 10 -25 14 0 5 -13 11 -30 15 -16 4 -30
13 -30 21 0 8 -7 14 -15 14 -8 0 -15 4 -15 9 0 5 -13 12 -30 16 -16 4 -30 10
-30 15 0 4 -11 11 -25 14 -14 4 -25 11 -25 16 0 6 -7 10 -15 10 -9 0 -18 7
-21 15 -4 8 -17 15 -30 15 -14 0 -27 6 -30 14 -3 8 -16 17 -30 20 -13 4 -24
10 -24 15 0 5 -13 12 -30 16 -16 4 -30 11 -30 16 0 5 -7 9 -15 9 -8 0 -15 7
-15 15 0 10 -10 15 -30 15 -20 0 -30 5 -30 15 0 10 -10 15 -30 15 -20 0 -30 5
-30 15 0 9 -9 15 -24 15 -13 0 -26 7 -30 15 -3 8 -17 15 -31 15 -16 0 -25 6
-25 15 0 10 -10 15 -30 15 -20 0 -30 5 -30 15 0 8 -7 15 -16 15 -8 0 -22 7
-30 15 -9 8 -29 15 -45 15 -19 0 -29 5 -29 15 0 9 -9 15 -24 15 -13 0 -26 7
-30 15 -3 8 -17 15 -31 15 -14 0 -25 4 -25 9 0 5 -13 12 -30 16 -16 4 -30 11
-30 16 0 5 -9 9 -19 9 -11 0 -26 6 -33 13 -7 8 -26 17 -41 21 -15 3 -27 11
-27 16 0 6 -13 10 -30 10 -20 0 -30 5 -30 15 0 10 -10 15 -30 15 -20 0 -30 5
-30 15 0 10 -10 15 -29 15 -16 0 -36 7 -45 15 -8 8 -26 15 -40 15 -16 0 -26 6
-26 15 0 10 -11 15 -35 15 -24 0 -35 5 -35 15 0 11 -11 15 -40 15 -29 0 -40 4
-40 15 0 10 -10 15 -31 15 -17 0 -37 7 -45 15 -9 8 -28 15 -44 15 -16 0 -30 5
-32 11 -2 5 -22 13 -46 16 -23 3 -42 9 -42 14 0 5 -18 12 -40 15 -22 4 -40 10
-40 14 0 4 -19 10 -41 13 -23 3 -45 10 -48 15 -3 5 -24 12 -45 15 -22 4 -42
10 -45 15 -3 5 -31 12 -61 14 -30 3 -56 11 -58 17 -2 6 -21 11 -42 11 -23 0
-42 6 -47 14 -5 8 -32 15 -72 18 -37 3 -67 10 -69 16 -2 7 -26 12 -62 12 -39
0 -64 5 -74 15 -10 11 -36 15 -86 15 -54 0 -72 4 -76 15 -5 12 -26 15 -105 15
-81 0 -99 3 -99 15 0 13 -23 15 -144 15 -107 0 -145 3 -148 13 -4 9 -82 13
-339 15 -285 2 -337 1 -354 -12z m985 -2225 c0 -25 5 -41 15 -45 10 -3 15 -19
15 -45 0 -22 5 -41 12 -43 6 -2 13 -30 16 -61 3 -39 9 -57 18 -57 9 0 14 -11
14 -30 0 -16 4 -30 9 -30 5 0 13 -25 16 -55 4 -30 11 -55 15 -55 5 0 11 -19
15 -42 4 -24 12 -46 17 -49 5 -3 12 -25 15 -48 3 -22 9 -41 13 -41 4 0 10 -19
13 -41 3 -23 10 -45 15 -48 5 -3 12 -24 15 -45 4 -22 10 -42 15 -45 5 -3 12
-24 15 -46 4 -22 11 -41 17 -43 5 -2 10 -21 10 -43 0 -28 4 -39 15 -39 11 0
15 -12 15 -45 0 -33 4 -45 15 -45 11 0 15 -12 15 -45 0 -33 4 -45 15 -45 11 0
15 -11 15 -39 0 -25 5 -41 15 -45 10 -4 15 -20 15 -51 0 -33 4 -45 15 -45 9 0
15 -9 15 -23 l0 -24 187 -7 c103 -4 190 -11 193 -15 3 -5 88 -11 189 -13 104
-3 186 -10 190 -15 3 -6 90 -12 206 -15 136 -4 200 -9 203 -17 2 -7 41 -11
118 -11 95 0 114 -3 114 -15 0 -8 -7 -15 -15 -15 -8 0 -15 -7 -15 -15 0 -9 -9
-15 -25 -15 -16 0 -25 -6 -25 -15 0 -8 -7 -15 -15 -15 -8 0 -15 -7 -15 -15 0
-10 -10 -15 -30 -15 -20 0 -30 -5 -30 -15 0 -8 -7 -15 -15 -15 -8 0 -15 -7
-15 -15 0 -9 -9 -15 -25 -15 -14 0 -25 -5 -25 -10 0 -6 -8 -14 -17 -17 -10 -4
-27 -16 -39 -29 -11 -12 -31 -25 -42 -29 -12 -3 -22 -11 -22 -16 0 -5 -7 -9
-15 -9 -9 0 -18 -6 -21 -14 -3 -8 -16 -17 -30 -20 -13 -4 -24 -11 -24 -16 0
-6 -7 -10 -15 -10 -9 0 -18 -6 -21 -14 -3 -8 -16 -17 -30 -20 -13 -4 -24 -11
-24 -16 0 -6 -7 -10 -15 -10 -8 0 -15 -6 -15 -14 0 -8 -13 -17 -30 -21 -16 -4
-30 -11 -30 -16 0 -5 -7 -9 -15 -9 -8 0 -15 -7 -15 -15 0 -8 -5 -15 -11 -15
-6 0 -17 -7 -25 -15 -9 -8 -24 -15 -35 -15 -10 0 -19 -7 -19 -15 0 -9 -9 -15
-22 -15 -13 -1 -34 -14 -48 -30 -14 -17 -34 -30 -47 -30 -14 0 -23 -6 -23 -15
0 -8 -7 -15 -15 -15 -8 0 -15 -4 -15 -9 0 -5 -13 -12 -30 -16 -16 -4 -30 -13
-30 -21 0 -8 -7 -14 -15 -14 -8 0 -15 -4 -15 -9 0 -5 -13 -12 -30 -16 -23 -5
-30 -12 -30 -31 0 -13 -4 -24 -10 -24 -5 0 -10 -7 -10 -15 0 -8 5 -15 10 -15
6 0 10 -27 10 -60 0 -47 3 -60 15 -60 12 0 15 -13 15 -60 0 -47 3 -60 15 -60
11 0 15 -13 15 -54 0 -39 4 -55 15 -60 11 -4 15 -21 15 -61 0 -42 3 -55 15
-55 11 0 15 -12 15 -44 0 -24 5 -46 11 -48 6 -2 13 -26 16 -53 3 -28 10 -53
16 -56 5 -4 12 -27 14 -53 3 -25 9 -46 13 -46 4 0 11 -20 14 -45 4 -25 11 -45
16 -45 5 0 12 -25 15 -55 4 -30 11 -55 15 -55 4 0 11 -25 15 -55 3 -30 10 -55
14 -55 5 0 11 -21 14 -46 2 -26 9 -49 14 -53 6 -3 13 -31 16 -61 4 -30 11 -56
17 -58 5 -2 10 -15 10 -28 0 -19 -5 -24 -25 -24 -16 0 -25 6 -25 15 0 8 -9 15
-20 15 -11 0 -20 7 -20 15 0 8 -7 15 -15 15 -8 0 -15 4 -15 10 0 5 -11 12 -25
16 -14 3 -25 12 -25 20 0 8 -6 14 -14 14 -8 0 -16 7 -20 15 -3 8 -12 15 -21
15 -8 0 -15 4 -15 10 0 5 -11 12 -25 16 -14 3 -25 12 -25 20 0 8 -5 14 -11 14
-7 0 -22 11 -35 25 -13 14 -28 25 -34 25 -5 0 -10 6 -10 14 0 8 -11 17 -25 20
-14 4 -25 11 -25 16 0 6 -7 10 -15 10 -9 0 -18 7 -21 15 -4 8 -12 15 -20 15
-8 0 -14 7 -14 15 0 8 -7 15 -15 15 -8 0 -15 7 -15 15 0 9 -9 15 -25 15 -16 0
-25 6 -25 15 0 8 -6 15 -14 15 -8 0 -16 7 -20 15 -3 8 -12 15 -21 15 -8 0 -15
4 -15 10 0 5 -11 12 -25 16 -14 3 -25 12 -25 20 0 8 -7 14 -15 14 -8 0 -15 7
-15 15 0 8 -7 15 -15 15 -8 0 -15 4 -15 9 0 5 -13 12 -30 16 -16 4 -30 13 -30
21 0 8 -5 14 -11 14 -7 0 -22 11 -34 24 -12 13 -32 27 -43 31 -12 3 -22 11
-22 16 0 5 -7 9 -15 9 -8 0 -15 7 -15 15 0 8 -7 15 -15 15 -9 0 -18 7 -21 15
-4 8 -17 15 -30 15 -15 0 -24 6 -24 15 0 8 -7 15 -15 15 -8 0 -15 7 -15 15 0
10 -10 15 -30 15 -20 0 -30 5 -30 15 0 8 -7 15 -15 15 -8 0 -15 -7 -15 -15 0
-9 -9 -15 -24 -15 -13 0 -26 -7 -30 -15 -3 -8 -12 -15 -21 -15 -8 0 -15 -7
-15 -15 0 -9 -9 -15 -24 -15 -13 0 -26 -7 -30 -15 -3 -8 -17 -15 -31 -15 -16
0 -25 -6 -25 -15 0 -8 -7 -15 -15 -15 -8 0 -15 -4 -15 -9 0 -5 -12 -12 -26
-15 -14 -4 -36 -18 -48 -31 -12 -13 -34 -27 -49 -30 -15 -4 -27 -11 -27 -15 0
-5 -13 -11 -30 -15 -16 -4 -30 -11 -30 -16 0 -5 -7 -9 -15 -9 -8 0 -15 -7 -15
-15 0 -9 -9 -15 -25 -15 -14 0 -28 -7 -31 -15 -4 -8 -12 -15 -20 -15 -8 0 -14
-7 -14 -15 0 -9 -9 -15 -25 -15 -14 0 -28 -7 -31 -15 -4 -8 -17 -15 -30 -15
-15 0 -24 -6 -24 -15 0 -8 -6 -15 -14 -15 -8 0 -16 -7 -20 -15 -3 -8 -17 -15
-31 -15 -16 0 -25 -6 -25 -15 0 -8 -7 -15 -15 -15 -8 0 -15 -4 -15 -9 0 -5
-13 -12 -30 -16 -16 -4 -30 -13 -30 -21 0 -8 -7 -14 -15 -14 -8 0 -15 -4 -15
-9 0 -5 -13 -12 -30 -16 -16 -4 -30 -10 -30 -15 0 -5 -10 -12 -22 -15 -11 -4
-31 -17 -42 -29 -12 -13 -29 -25 -38 -29 -10 -3 -18 -11 -18 -16 0 -5 -11 -12
-25 -15 -14 -4 -25 -11 -25 -16 0 -6 -7 -10 -15 -10 -18 0 -21 56 -4 62 6 2
13 26 16 53 3 28 10 53 15 56 5 3 11 23 15 45 3 21 11 42 16 46 6 3 12 31 15
62 2 31 8 56 12 56 4 0 11 20 14 45 4 25 11 45 15 45 5 0 12 25 16 55 3 30 10
55 14 55 5 0 11 19 14 42 3 24 11 44 16 46 6 2 11 21 11 43 0 26 5 42 15 45
10 4 15 20 15 50 0 32 4 44 15 44 12 0 15 13 15 55 0 42 3 55 15 55 11 0 15
12 15 45 0 33 4 45 15 45 11 0 15 12 15 45 0 33 4 45 15 45 12 0 15 13 15 55
0 42 3 55 15 55 24 0 20 81 -5 103 -11 9 -25 17 -30 17 -6 0 -10 7 -10 15 0 8
-7 15 -15 15 -8 0 -15 7 -15 15 0 8 -7 15 -15 15 -8 0 -15 7 -15 15 0 8 -7 15
-15 15 -8 0 -15 7 -15 15 0 8 -7 15 -15 15 -8 0 -15 7 -15 15 0 8 -7 15 -15
15 -8 0 -15 7 -15 15 0 9 -9 15 -25 15 -16 0 -25 6 -25 15 0 8 -7 15 -15 15
-8 0 -15 7 -15 15 0 8 -6 15 -12 15 -7 1 -24 14 -38 30 -13 17 -30 30 -37 30
-7 0 -13 4 -13 10 0 5 -11 12 -25 16 -14 3 -25 12 -25 20 0 8 -7 14 -15 14 -8
0 -15 7 -15 15 0 8 -7 15 -15 15 -8 0 -15 5 -15 10 0 6 -7 10 -15 10 -8 0 -15
7 -15 15 0 8 -7 15 -15 15 -8 0 -15 7 -15 15 0 8 -7 15 -15 15 -8 0 -15 6 -15
14 0 8 -11 17 -25 20 -14 4 -25 11 -25 16 0 6 -7 10 -15 10 -8 0 -15 7 -15 15
0 8 -7 15 -15 15 -8 0 -15 7 -15 15 0 8 -7 15 -15 15 -8 0 -15 7 -15 15 0 8
-6 15 -12 15 -7 1 -24 14 -38 30 -13 17 -28 30 -33 30 -5 0 -22 14 -39 30 -16
17 -36 30 -44 30 -8 0 -14 7 -14 15 0 8 -7 15 -15 15 -8 0 -15 7 -15 15 0 8
-5 15 -11 15 -7 0 -22 11 -35 25 -13 14 -28 25 -34 25 -5 0 -10 6 -10 14 0 8
-11 17 -25 20 -18 5 -25 13 -25 31 0 21 5 25 29 25 16 0 31 -5 33 -12 3 -8 61
-13 189 -16 107 -3 187 -9 190 -15 4 -6 102 -12 245 -15 132 -2 241 -9 245
-13 6 -11 406 -25 442 -15 24 6 27 11 27 46 0 29 4 40 15 40 10 0 15 10 15 28
0 16 7 37 15 48 8 10 15 31 15 47 0 17 5 27 15 27 11 0 15 12 15 45 0 33 4 45
15 45 11 0 15 11 15 39 0 25 5 41 15 45 10 3 15 19 15 46 0 29 4 40 15 40 10
0 15 10 15 31 0 17 7 37 15 45 8 9 15 28 15 44 0 16 5 30 11 32 5 2 13 22 16
46 3 23 9 42 13 42 4 0 10 18 14 40 3 22 10 40 15 40 5 0 11 19 14 42 3 24 11
44 16 46 6 2 11 17 11 33 0 19 5 29 15 29 11 0 15 11 15 40 0 27 5 43 15 46
10 4 15 20 15 45 0 26 5 42 15 45 9 4 15 19 15 35 0 19 5 29 15 29 12 0 15 13
15 55 0 54 0 55 30 55 28 0 30 -2 30 -39z m5860 -1905 c0 -8 5 -16 10 -18 6
-2 13 -21 17 -43 3 -22 10 -43 15 -46 5 -3 12 -25 15 -48 3 -22 9 -41 14 -41
5 0 12 -18 15 -40 4 -22 10 -40 15 -40 4 0 11 -20 15 -45 3 -25 10 -45 14 -45
4 0 10 -19 13 -41 3 -23 10 -45 15 -48 5 -3 12 -24 15 -45 4 -22 10 -42 15
-45 5 -3 12 -24 15 -45 4 -22 10 -42 15 -45 5 -3 12 -24 15 -46 4 -22 11 -41
17 -43 5 -2 10 -21 10 -43 0 -28 4 -39 15 -39 11 0 15 -12 15 -45 0 -33 4 -45
15 -45 11 0 15 -12 15 -45 0 -33 4 -45 15 -45 11 0 15 -11 15 -40 0 -29 4 -40
15 -40 11 0 15 -12 15 -45 0 -33 4 -45 15 -45 10 0 15 -10 15 -30 0 -20 5 -30
15 -30 8 0 15 -6 15 -14 0 -12 31 -15 172 -18 126 -2 172 -6 176 -15 3 -10 47
-13 177 -13 144 0 174 -2 179 -15 4 -12 32 -15 165 -15 117 0 160 -3 163 -12
3 -9 46 -14 146 -16 l142 -4 0 -29 c0 -26 -4 -29 -30 -29 -20 0 -30 -5 -30
-15 0 -8 -7 -15 -15 -15 -8 0 -15 -4 -15 -9 0 -5 -13 -12 -30 -16 -16 -4 -30
-11 -30 -16 0 -5 -7 -9 -15 -9 -8 0 -23 -9 -32 -20 -10 -11 -23 -20 -30 -20
-7 0 -13 -4 -13 -9 0 -5 -11 -12 -25 -15 -14 -4 -25 -11 -25 -16 0 -6 -7 -10
-15 -10 -9 0 -18 -7 -21 -15 -4 -8 -17 -15 -30 -15 -15 0 -24 -6 -24 -15 0 -8
-9 -15 -19 -15 -11 0 -26 -7 -35 -15 -8 -8 -19 -15 -25 -15 -6 0 -11 -7 -11
-15 0 -10 -10 -15 -30 -15 -20 0 -30 -5 -30 -15 0 -8 -7 -15 -15 -15 -8 0 -15
-7 -15 -15 0 -10 -10 -15 -30 -15 -20 0 -30 -5 -30 -15 0 -9 -9 -15 -24 -15
-13 0 -26 -7 -30 -15 -3 -8 -12 -15 -21 -15 -8 0 -15 -7 -15 -15 0 -8 -7 -15
-15 -15 -8 0 -15 -4 -15 -9 0 -5 -13 -12 -30 -16 -16 -4 -30 -11 -30 -16 0 -5
-11 -11 -24 -15 -14 -3 -27 -12 -30 -20 -3 -8 -12 -14 -21 -14 -8 0 -15 -4
-15 -10 0 -5 -11 -12 -25 -16 -14 -3 -25 -10 -25 -15 0 -5 -7 -9 -15 -9 -8 0
-15 -6 -15 -14 0 -8 -13 -17 -30 -21 l-30 -7 0 -84 c0 -68 3 -84 15 -84 11 0
15 -13 15 -54 0 -39 4 -55 15 -60 10 -3 15 -19 15 -45 0 -25 5 -41 15 -45 11
-4 15 -21 15 -61 0 -42 3 -55 15 -55 11 0 15 -13 15 -54 0 -39 4 -55 15 -60
10 -3 15 -19 15 -45 0 -22 5 -41 11 -43 6 -2 13 -25 16 -51 3 -26 9 -47 14
-47 4 0 11 -25 14 -55 4 -30 11 -55 15 -55 4 0 11 -25 15 -55 3 -30 10 -55 14
-55 5 0 11 -19 14 -41 3 -23 10 -45 15 -48 5 -3 12 -26 15 -50 3 -24 10 -47
15 -50 5 -3 12 -28 15 -56 3 -27 10 -51 16 -53 14 -5 14 -32 0 -32 -6 0 -17 7
-25 15 -9 8 -24 15 -35 15 -10 0 -19 7 -19 15 0 8 -7 15 -15 15 -8 0 -15 4
-15 10 0 5 -11 12 -25 16 -14 3 -25 12 -25 20 0 8 -7 14 -15 14 -8 0 -15 5
-15 10 0 6 -7 10 -15 10 -8 0 -15 7 -15 15 0 8 -7 15 -15 15 -8 0 -15 6 -15
14 0 8 -13 17 -30 21 -16 4 -30 11 -30 16 0 5 -7 9 -15 9 -8 0 -15 6 -15 14 0
8 -11 17 -25 20 -14 4 -25 11 -25 16 0 6 -7 10 -15 10 -9 0 -18 7 -21 15 -4 8
-12 15 -20 15 -8 0 -14 7 -14 15 0 8 -7 15 -15 15 -8 0 -15 7 -15 15 0 9 -9
15 -25 15 -16 0 -25 6 -25 15 0 8 -7 15 -15 15 -8 0 -15 7 -15 15 0 8 -9 15
-20 15 -11 0 -20 4 -20 10 0 5 -11 12 -25 16 -14 3 -25 12 -25 20 0 8 -7 14
-15 14 -8 0 -15 4 -15 9 0 5 -13 12 -30 16 -16 4 -30 13 -30 21 0 8 -7 14 -15
14 -8 0 -15 7 -15 15 0 8 -7 15 -15 15 -8 0 -15 4 -15 9 0 5 -11 12 -25 15
-14 4 -25 11 -25 16 0 6 -7 10 -15 10 -9 0 -18 7 -21 15 -4 8 -12 15 -20 15
-8 0 -14 6 -14 14 0 8 -11 17 -25 20 -14 4 -25 11 -25 16 0 6 -7 10 -15 10 -9
0 -18 7 -21 15 -4 8 -17 15 -30 15 -15 0 -24 6 -24 15 0 8 -7 15 -15 15 -8 0
-15 7 -15 15 0 10 -10 15 -30 15 -20 0 -30 -5 -30 -15 0 -8 -7 -15 -15 -15 -8
0 -15 -7 -15 -15 0 -9 -9 -15 -24 -15 -13 0 -26 -7 -30 -15 -3 -8 -16 -15 -30
-15 -13 0 -26 -7 -30 -15 -3 -8 -17 -15 -31 -15 -16 0 -25 -6 -25 -15 0 -8 -9
-15 -20 -15 -11 0 -20 -4 -20 -10 0 -5 -11 -12 -25 -16 -14 -3 -25 -10 -25
-14 0 -5 -13 -11 -30 -15 -16 -4 -30 -11 -30 -16 0 -5 -7 -9 -15 -9 -8 0 -15
-6 -15 -14 0 -8 -13 -17 -30 -21 -16 -4 -30 -11 -30 -16 0 -5 -11 -9 -25 -9
-14 0 -28 -6 -31 -14 -3 -8 -16 -17 -30 -20 -13 -4 -24 -11 -24 -16 0 -6 -9
-10 -20 -10 -11 0 -20 -7 -20 -15 0 -9 -9 -15 -25 -15 -14 0 -28 -7 -31 -15
-4 -8 -17 -15 -30 -15 -15 0 -24 -6 -24 -15 0 -10 -10 -15 -30 -15 -20 0 -30
-5 -30 -15 0 -10 -10 -15 -30 -15 -20 0 -30 -5 -30 -15 0 -8 -7 -15 -15 -15
-8 0 -15 -4 -15 -10 0 -5 -12 -13 -27 -16 -15 -4 -34 -13 -41 -21 -7 -7 -22
-13 -33 -13 -10 0 -19 -7 -19 -15 0 -9 -9 -15 -25 -15 -14 0 -25 -5 -25 -10 0
-6 -8 -14 -17 -17 -10 -4 -24 -13 -31 -20 -7 -7 -22 -13 -34 -13 -17 0 -19 4
-13 32 4 17 14 38 21 46 8 7 14 26 14 42 0 16 5 30 11 32 6 2 14 27 17 56 2
29 8 52 12 52 4 0 11 16 14 35 4 19 11 35 15 35 5 0 11 19 14 41 3 23 10 45
15 48 5 3 12 24 15 46 4 22 11 41 17 43 5 2 10 16 10 32 0 16 6 35 13 42 8 7
17 31 20 53 4 22 11 41 17 43 5 2 10 16 10 32 0 16 7 35 15 44 8 8 15 28 15
45 0 16 7 36 15 45 8 8 15 26 15 41 0 15 7 33 15 41 8 9 15 29 15 45 0 17 7
37 15 45 8 9 15 33 15 54 0 24 5 40 15 44 8 3 15 17 15 31 0 15 7 33 15 41 8
9 15 28 15 44 0 22 -6 29 -26 34 -14 4 -36 18 -48 31 -13 14 -28 25 -35 25 -6
0 -11 7 -11 15 0 8 -7 15 -15 15 -8 0 -15 7 -15 15 0 8 -7 15 -15 15 -8 0 -15
7 -15 15 0 8 -7 15 -15 15 -8 0 -15 7 -15 15 0 9 -9 15 -25 15 -16 0 -25 6
-25 15 0 8 -7 15 -15 15 -8 0 -15 7 -15 15 0 8 -7 15 -15 15 -8 0 -15 7 -15
15 0 8 -6 15 -12 15 -7 1 -24 14 -38 30 -13 17 -28 30 -33 30 -5 0 -22 14 -39
30 -16 17 -36 30 -44 30 -8 0 -14 7 -14 15 0 8 -7 15 -15 15 -8 0 -15 7 -15
15 0 8 -7 15 -15 15 -8 0 -15 5 -15 10 0 6 -7 10 -15 10 -8 0 -15 7 -15 15 0
8 -7 15 -15 15 -8 0 -15 7 -15 15 0 8 -7 15 -15 15 -8 0 -15 6 -15 14 0 8 -11
17 -25 20 -14 4 -25 11 -25 16 0 6 -7 10 -15 10 -8 0 -15 7 -15 15 0 8 -7 15
-15 15 -8 0 -15 7 -15 15 0 8 -7 15 -15 15 -8 0 -15 7 -15 15 0 8 -6 15 -14
15 -8 0 -16 7 -20 15 -3 8 -12 15 -21 15 -8 0 -15 4 -15 10 0 5 -11 12 -25 16
-14 3 -25 12 -25 20 0 8 -7 14 -15 14 -8 0 -15 7 -15 15 0 8 -7 15 -15 15 -8
0 -15 7 -15 15 0 8 -7 15 -15 15 -17 0 -19 18 -5 40 9 13 11 13 20 0 7 -11 34
-16 110 -18 55 -2 100 -7 100 -12 0 -4 70 -11 155 -15 85 -4 155 -11 155 -15
0 -4 66 -10 147 -14 81 -4 150 -10 153 -15 6 -10 416 -23 448 -14 16 4 22 13
22 34 0 19 5 29 15 29 11 0 15 11 15 40 0 29 4 40 15 40 10 0 15 10 15 31 0
17 7 37 15 45 8 9 15 29 15 45 0 19 5 29 15 29 10 0 15 10 15 29 0 16 5 31 11
33 5 2 13 22 16 46 3 23 9 42 14 42 4 0 10 14 14 30 4 17 10 30 15 30 4 0 10
18 14 40 3 22 11 40 16 40 6 0 10 14 10 30 0 17 6 33 14 36 7 3 16 23 20 45 3
21 11 39 16 39 6 0 10 13 10 29 0 16 7 36 15 45 8 8 15 26 15 41 0 14 7 28 15
31 8 4 15 18 15 34 0 16 7 35 15 44 8 8 15 26 15 40 0 16 6 26 15 26 11 0 15
12 15 45 0 33 4 45 15 45 10 0 15 10 15 30 0 20 5 30 15 30 8 0 15 -6 15 -14z
m-6070 -4045 c0 -4 19 -11 42 -14 24 -3 44 -11 46 -16 2 -6 10 -11 18 -11 8 0
14 -7 14 -15 0 -8 7 -15 15 -15 8 0 15 -7 15 -15 0 -8 7 -15 15 -15 11 0 15
-12 15 -45 0 -33 4 -45 15 -45 10 0 15 -10 15 -30 0 -20 -5 -30 -15 -30 -11 0
-15 -12 -15 -45 0 -33 -4 -45 -15 -45 -8 0 -15 -7 -15 -15 0 -8 -5 -15 -11
-15 -7 0 -22 -11 -34 -24 -15 -16 -38 -26 -73 -31 -29 -4 -52 -11 -52 -16 0
-5 -7 -9 -15 -9 -8 0 -15 4 -15 9 0 4 -19 11 -42 14 -24 3 -44 11 -46 16 -2 6
-9 11 -16 11 -13 0 -46 35 -46 50 0 6 -7 10 -15 10 -11 0 -15 12 -15 45 0 33
-4 45 -15 45 -11 0 -15 12 -15 45 0 33 4 45 15 45 10 0 15 10 15 30 0 17 4 30
10 30 5 0 12 11 16 24 4 17 15 27 35 31 16 4 29 13 29 21 0 9 11 14 30 14 17
0 30 5 30 10 0 6 18 10 40 10 22 0 40 -4 40 -9z m7740 -2206 c0 -40 -4 -57
-15 -61 -8 -4 -15 -12 -15 -20 0 -8 -7 -14 -15 -14 -8 0 -15 -7 -15 -15 0 -8
-7 -15 -15 -15 -8 0 -15 -7 -15 -15 0 -8 -6 -15 -14 -15 -8 0 -16 -5 -18 -12
-3 -7 -32 -14 -71 -16 -55 -4 -68 -1 -73 12 -3 9 -17 16 -30 16 -14 0 -27 6
-30 14 -3 8 -16 17 -30 20 -17 5 -24 13 -24 31 0 16 -6 25 -15 25 -11 0 -15
12 -15 45 l0 45 145 0 c82 0 145 4 145 9 0 12 24 18 78 20 l42 1 0 -55z
m-5540 -164 c0 -5 14 -12 30 -16 17 -4 30 -11 30 -16 0 -5 7 -9 15 -9 8 0 15
-7 15 -15 0 -8 7 -15 15 -15 8 0 15 -6 15 -14 0 -8 7 -16 15 -20 12 -4 15 -26
15 -106 0 -82 -3 -100 -15 -100 -8 0 -15 -7 -15 -15 0 -8 -7 -15 -15 -15 -8 0
-15 -7 -15 -15 0 -8 -7 -15 -15 -15 -8 0 -15 -7 -15 -15 0 -8 -6 -15 -14 -15
-8 0 -16 -6 -18 -12 -3 -9 -33 -14 -90 -16 -67 -3 -88 -1 -101 12 -8 9 -22 16
-30 16 -22 0 -67 47 -67 70 0 11 -7 20 -15 20 -12 0 -15 18 -15 100 0 62 4
100 10 100 6 0 14 8 17 18 11 28 58 70 87 78 14 3 26 10 26 15 0 5 34 9 75 9
41 0 75 -4 75 -9z"/>
<path d="M7955 22825 c-27 -30 -56 -54 -62 -55 -7 0 -13 -7 -13 -15 0 -8 -7
-15 -15 -15 -8 0 -15 -7 -15 -15 0 -8 -7 -15 -15 -15 -8 0 -15 -7 -15 -15 0
-8 -7 -15 -15 -15 -8 0 -15 -7 -15 -15 0 -8 -7 -15 -15 -15 -8 0 -15 -7 -15
-15 0 -8 -7 -15 -15 -15 -8 0 -15 -7 -15 -15 0 -8 -7 -15 -15 -15 -8 0 -15 -7
-15 -15 0 -8 -7 -15 -15 -15 -8 0 -15 -7 -15 -15 0 -8 -7 -15 -15 -15 -8 0
-15 -7 -15 -15 0 -8 -7 -15 -15 -15 -8 0 -15 -7 -15 -15 0 -8 -7 -15 -15 -15
-8 0 -15 -7 -15 -15 0 -8 -4 -15 -10 -15 -5 0 -10 -7 -10 -15 0 -8 7 -15 15
-15 10 0 15 -10 15 -30 0 -16 4 -30 10 -30 5 0 13 -12 16 -27 4 -15 13 -34 21
-41 7 -7 13 -20 13 -28 0 -9 7 -22 15 -30 8 -9 15 -24 15 -35 0 -10 4 -19 9
-19 5 0 12 -13 16 -30 4 -16 11 -30 16 -30 5 0 9 -11 9 -24 0 -14 7 -31 15
-40 8 -8 15 -22 15 -30 0 -9 7 -16 15 -16 10 0 15 -10 15 -29 0 -16 6 -36 13
-43 8 -7 17 -26 21 -41 3 -15 11 -27 16 -27 6 0 10 -13 10 -30 0 -20 5 -30 15
-30 10 0 15 -10 15 -30 0 -20 5 -30 15 -30 13 0 15 -599 15 -5330 0 -4731 2
-5330 15 -5330 10 0 15 -10 15 -30 0 -20 5 -30 15 -30 8 0 15 -6 15 -14 0 -8
17 -16 46 -20 26 -3 3056 -6 6734 -6 6089 0 6688 -1 6694 -16 3 -9 6 -85 6
-170 0 -96 4 -154 10 -154 6 0 10 -7 10 -15 0 -10 10 -15 30 -15 17 0 30 4 30
9 0 5 16 12 35 15 19 4 35 11 35 15 0 5 18 11 40 15 22 3 40 10 40 15 0 5 14
12 30 16 17 4 30 11 30 16 0 5 14 9 30 9 20 0 30 5 30 15 0 10 10 15 29 15 16
0 36 7 45 15 8 8 26 15 40 15 16 0 26 6 26 15 0 10 10 15 30 15 20 0 30 5 30
15 0 10 10 15 30 15 20 0 30 5 30 15 0 11 11 15 39 15 25 0 41 5 45 15 3 8 16
15 30 15 13 0 26 7 30 15 3 9 18 15 36 15 16 0 30 4 30 10 0 5 12 13 27 16 48
12 53 25 53 134 0 111 -8 130 -54 130 -16 0 -26 6 -26 15 0 10 -11 15 -35 15
-24 0 -35 5 -35 15 0 11 -11 15 -40 15 -29 0 -40 4 -40 15 0 10 -10 15 -30 15
-20 0 -30 5 -30 15 0 10 -10 15 -30 15 -16 0 -30 4 -30 10 0 5 -18 13 -39 16
-22 4 -42 13 -45 20 -3 8 -17 14 -31 14 -15 0 -33 7 -41 15 -9 8 -24 15 -35
15 -10 0 -19 4 -19 9 0 5 -18 11 -40 15 -22 3 -40 10 -40 15 0 5 -13 12 -30
16 -16 4 -30 11 -30 16 0 5 -11 9 -25 9 -13 0 -28 6 -32 14 -9 14 -92 27 -124
19 -18 -5 -19 -16 -19 -164 l0 -159 -6654 0 -6654 0 4 5242 c3 3103 8 5244 13
5248 5 3 13 18 16 33 4 15 11 27 15 27 5 0 11 14 15 30 4 17 10 30 15 30 4 0
11 11 14 25 4 14 11 25 16 25 6 0 10 14 10 30 0 20 5 30 15 30 10 0 15 10 15
30 0 20 5 30 15 30 10 0 15 10 15 30 0 20 5 30 15 30 10 0 15 10 15 30 0 20 5
30 15 30 10 0 15 10 15 30 0 20 5 30 15 30 9 0 15 9 15 24 0 13 7 26 15 30 8
3 15 16 15 30 0 13 7 26 15 30 8 3 15 16 15 30 0 13 6 26 13 29 7 2 12 23 12
53 0 42 -5 55 -27 76 -16 14 -28 30 -28 37 0 6 -7 11 -15 11 -8 0 -15 7 -15
15 0 8 -7 15 -15 15 -8 0 -15 7 -15 15 0 8 -7 15 -15 15 -8 0 -15 7 -15 15 0
8 -5 15 -11 15 -6 0 -49 38 -95 85 -47 47 -89 85 -94 85 -6 0 -10 7 -10 15 0
8 -7 15 -15 15 -8 0 -15 7 -15 15 0 8 -7 15 -15 15 -8 0 -15 7 -15 15 0 11
-10 15 -37 14 -32 -1 -45 -9 -88 -54z"/>
<path d="M19733 9752 c-451 -1 -693 -6 -693 -12 0 -6 -7 -10 -15 -10 -8 0 -15
-7 -15 -15 0 -8 -4 -15 -10 -15 -6 0 -10 -75 -10 -205 0 -118 4 -205 9 -205 5
0 12 -13 16 -30 l7 -30 213 0 c212 0 213 0 219 -22 3 -13 6 -470 6 -1015 0
-655 3 -993 10 -993 6 0 10 -11 10 -25 l0 -25 280 0 c192 0 280 3 280 11 0 6
7 17 15 25 13 14 15 141 15 1030 l0 1014 229 0 229 0 7 30 c4 17 11 30 16 30
5 0 9 85 9 200 0 127 -4 200 -10 200 -5 0 -10 9 -10 20 0 11 -6 20 -14 20 -8
0 -16 4 -18 9 -6 15 -75 16 -775 13z"/>
<path d="M7722 9722 c-21 -24 -23 -33 -17 -82 4 -30 10 -57 14 -60 5 -3 11
-34 15 -69 3 -36 10 -67 15 -70 4 -3 11 -37 15 -76 4 -38 11 -72 15 -75 4 -3
11 -36 14 -75 4 -38 11 -71 17 -73 5 -2 10 -28 10 -58 0 -39 4 -56 15 -60 11
-5 15 -22 15 -64 0 -36 5 -64 14 -72 8 -8 15 -43 18 -83 2 -41 9 -70 16 -73 7
-2 12 -25 12 -59 0 -35 5 -60 15 -69 11 -11 15 -37 15 -90 0 -59 3 -74 15 -74
12 0 15 -13 15 -59 0 -37 4 -61 12 -63 7 -3 14 -32 16 -74 3 -38 9 -72 15 -76
6 -3 13 -35 15 -70 3 -35 9 -66 15 -70 6 -4 13 -37 15 -75 3 -37 9 -71 13 -74
5 -3 12 -35 16 -72 3 -37 9 -67 14 -67 4 0 11 -29 14 -65 4 -36 11 -65 15 -65
4 0 11 -31 14 -70 4 -38 11 -70 15 -70 5 0 11 -30 14 -67 4 -38 11 -69 17 -71
5 -2 10 -30 10 -63 0 -42 4 -61 14 -65 8 -3 17 -16 20 -30 l6 -24 375 0 c327
0 375 2 375 15 0 8 6 15 14 15 8 0 15 16 19 41 3 23 10 45 15 48 5 3 11 42 14
85 2 51 8 81 16 84 8 2 12 25 12 63 0 46 3 59 15 59 12 0 15 14 15 70 0 54 4
72 15 76 11 5 15 23 15 75 0 55 3 69 15 69 12 0 15 15 15 75 0 60 3 75 15 75
12 0 15 14 15 70 0 56 3 70 15 70 12 0 15 13 15 59 0 37 4 61 12 63 7 3 14 32
16 74 3 38 9 72 15 75 5 4 12 31 15 60 3 30 9 57 14 60 4 3 11 35 15 72 3 37
9 67 13 67 5 0 11 27 15 60 4 33 11 60 15 60 5 0 12 32 16 70 3 39 10 70 14
70 4 0 11 29 15 65 3 36 10 65 14 65 5 0 11 30 14 67 4 38 11 69 17 71 5 2 10
28 10 58 0 39 4 56 15 60 11 5 15 22 15 64 0 39 5 64 15 74 10 9 15 34 15 70
0 43 3 56 15 56 12 0 15 15 15 75 0 60 -3 75 -15 75 -8 0 -15 5 -15 10 0 6
-98 10 -275 10 -177 0 -275 -4 -275 -10 0 -5 -6 -10 -14 -10 -8 0 -17 -13 -21
-30 -4 -16 -10 -30 -14 -30 -5 0 -11 -39 -14 -87 -4 -47 -10 -89 -15 -92 -6
-3 -11 -41 -14 -84 -2 -43 -8 -81 -15 -85 -6 -4 -12 -44 -15 -91 -2 -55 -8
-86 -16 -89 -8 -2 -12 -28 -12 -77 0 -52 -4 -78 -15 -89 -11 -11 -15 -37 -15
-100 0 -70 -3 -86 -15 -86 -12 0 -15 -16 -15 -85 0 -67 -3 -87 -15 -91 -12 -5
-15 -25 -15 -89 0 -58 -4 -85 -12 -87 -9 -3 -14 -36 -17 -103 -2 -67 -8 -103
-17 -112 -9 -10 -14 -38 -14 -88 0 -48 -4 -75 -12 -77 -7 -3 -14 -32 -16 -76
-6 -104 -32 -88 -32 20 0 25 -4 48 -10 50 -5 2 -13 38 -16 81 -4 42 -10 77
-14 77 -4 0 -11 45 -15 100 -3 55 -10 100 -15 100 -4 0 -11 45 -15 100 -3 55
-10 100 -14 100 -5 0 -11 39 -14 87 -4 47 -10 89 -16 92 -5 3 -10 43 -12 89
-3 47 -9 86 -16 90 -6 4 -12 45 -14 100 -3 55 -9 96 -15 100 -7 4 -13 43 -15
90 -3 47 -9 86 -16 90 -6 4 -12 45 -14 101 -3 64 -8 96 -16 99 -9 2 -13 26
-13 73 0 55 -3 69 -15 69 -8 0 -15 9 -15 20 0 11 -7 20 -15 20 -8 0 -15 5 -15
10 0 6 -97 10 -272 9 l-273 0 -23 -27z"/>
<path d="M9990 9740 c0 -5 -13 -10 -30 -10 -19 0 -30 -5 -30 -14 0 -8 -6 -16
-12 -18 -10 -4 -14 -264 -16 -1246 -2 -1103 -1 -1242 13 -1242 8 0 15 -6 15
-13 0 -7 9 -20 20 -30 18 -15 48 -17 260 -17 212 0 242 2 260 17 11 10 20 30
20 45 0 16 5 28 10 28 7 0 10 412 10 1215 0 803 -3 1215 -10 1215 -5 0 -10 12
-10 26 0 17 -6 28 -20 31 -11 3 -20 9 -20 14 0 5 -103 9 -230 9 -147 0 -230
-4 -230 -10z"/>
<path d="M11020 9740 c0 -5 -6 -10 -14 -10 -8 0 -17 -13 -21 -30 -4 -16 -11
-30 -16 -30 -5 0 -9 -13 -9 -30 0 -16 5 -30 10 -30 6 0 10 -27 10 -60 0 -33
-4 -60 -10 -60 -6 0 -10 -128 -10 -365 0 -237 4 -365 10 -365 7 0 10 -247 10
-720 0 -473 -3 -720 -10 -720 -5 0 -10 -18 -10 -40 0 -22 5 -40 10 -40 6 0 10
-12 10 -28 0 -15 9 -35 20 -45 19 -16 69 -17 655 -17 622 0 635 0 655 20 19
19 20 33 20 240 0 215 -1 221 -22 243 -23 22 -25 22 -380 25 l-358 3 0 258 0
259 23 6 c12 3 145 6 295 6 174 0 272 4 272 10 0 6 14 10 30 10 20 0 30 5 30
15 0 8 5 15 10 15 6 0 10 75 10 205 0 130 -4 205 -10 205 -5 0 -10 7 -10 15 0
8 -7 15 -15 15 -8 0 -15 7 -15 15 0 13 -41 15 -310 15 l-310 0 2 248 3 247
353 3 c239 1 352 6 352 13 0 6 7 17 15 25 12 13 15 51 15 217 0 111 -3 212 -6
225 -4 15 -14 22 -30 22 -13 0 -24 5 -24 10 0 7 -212 10 -615 10 -403 0 -615
-3 -615 -10z"/>
<path d="M12598 9720 l-28 -29 0 -199 c0 -168 2 -201 15 -206 8 -3 15 -17 15
-31 l0 -25 229 0 229 0 6 -22 c3 -13 6 -470 6 -1015 0 -643 3 -993 10 -993 5
0 12 -11 16 -25 l6 -25 258 0 c220 0 259 2 264 15 3 8 12 15 21 15 8 0 15 7
15 15 0 8 5 15 10 15 7 0 10 343 10 1010 l0 1010 220 0 c189 0 220 2 220 15 0
8 7 15 15 15 18 0 18 -13 15 438 0 22 -5 32 -15 32 -8 0 -15 5 -15 10 0 7
-256 10 -747 10 l-748 -1 -27 -29z"/>
<path d="M14530 9740 c0 -5 -7 -10 -15 -10 -13 0 -15 -148 -15 -1275 0 -1127
2 -1275 15 -1275 8 0 15 -7 15 -15 0 -13 34 -15 250 -15 216 0 250 2 250 15 0
8 7 15 15 15 13 0 15 94 15 790 0 520 3 790 10 790 6 0 10 -7 10 -15 0 -8 6
-15 14 -15 14 0 26 -60 26 -131 0 -20 4 -39 10 -41 5 -1 12 -34 16 -73 4 -38
11 -72 15 -75 5 -3 11 -38 15 -78 4 -40 10 -72 14 -72 5 0 11 -27 15 -60 4
-33 10 -60 15 -60 4 0 11 -31 14 -70 4 -38 11 -70 15 -70 5 0 11 -32 15 -72 4
-40 10 -75 15 -78 4 -3 11 -36 14 -75 3 -38 10 -71 16 -73 6 -2 11 -29 11 -62
0 -39 5 -64 15 -74 11 -10 15 -36 15 -85 0 -56 3 -71 15 -71 12 0 15 -15 15
-75 0 -60 3 -75 15 -75 11 0 15 -11 15 -41 0 -68 3 -69 229 -69 221 0 241 5
241 61 0 15 6 29 13 31 8 3 13 35 16 99 2 67 7 96 17 102 10 6 14 28 14 77 0
37 5 70 10 72 6 2 13 35 17 73 3 39 10 73 15 76 4 3 11 42 15 87 3 45 10 82
14 82 4 0 11 32 15 70 3 39 10 70 14 70 4 0 10 32 14 72 4 40 10 75 15 78 4 3
11 36 14 74 4 38 11 72 16 75 4 3 10 37 13 74 2 38 9 71 15 75 6 4 12 36 15
71 3 37 10 67 16 69 8 2 12 30 12 78 0 59 3 74 15 74 15 0 19 -276 20 -1379 0
-146 3 -195 13 -198 6 -3 12 -13 12 -24 0 -10 7 -19 15 -19 8 0 15 -4 15 -10
0 -6 90 -10 250 -10 216 0 250 2 250 15 0 8 7 15 15 15 13 0 15 147 15 1259 0
1132 -2 1261 -16 1275 -8 9 -22 16 -30 16 -8 0 -14 5 -14 10 0 6 -138 10 -395
10 -257 0 -395 -4 -395 -10 0 -5 -6 -10 -14 -10 -8 0 -15 -16 -19 -41 -3 -23
-10 -45 -15 -48 -5 -3 -11 -37 -14 -75 -2 -42 -9 -71 -16 -74 -8 -2 -12 -28
-12 -73 0 -53 -4 -71 -15 -75 -11 -5 -15 -23 -15 -74 0 -45 -4 -70 -12 -72 -8
-3 -14 -34 -16 -89 -3 -47 -9 -87 -15 -91 -7 -4 -13 -42 -15 -85 -3 -43 -9
-81 -15 -85 -7 -4 -13 -42 -15 -85 -3 -43 -9 -81 -15 -85 -6 -4 -13 -37 -15
-75 -3 -37 -9 -71 -14 -74 -5 -3 -11 -45 -15 -92 -3 -48 -10 -87 -14 -87 -5 0
-9 7 -9 15 0 8 -6 15 -14 15 -10 0 -16 23 -21 85 -4 47 -10 85 -14 85 -5 0
-11 32 -15 72 -4 40 -10 75 -15 78 -5 3 -10 36 -13 73 -2 38 -9 71 -15 75 -6
4 -12 38 -15 76 -2 42 -9 71 -16 74 -8 2 -12 28 -12 73 0 55 -3 69 -15 69 -12
0 -15 15 -15 74 0 53 -4 79 -15 90 -11 10 -15 36 -15 85 0 56 -3 71 -15 71
-12 0 -15 15 -15 75 0 60 -3 75 -15 75 -11 0 -15 11 -15 41 0 31 -6 47 -29 70
l-29 29 -396 0 c-257 0 -396 -4 -396 -10z"/>
<path d="M17630 9740 c0 -5 -11 -10 -24 -10 -20 0 -24 -6 -29 -42 -3 -24 -11
-44 -16 -46 -7 -2 -11 -33 -11 -73 0 -53 -4 -71 -15 -75 -11 -5 -15 -23 -15
-79 0 -52 -4 -78 -15 -89 -10 -9 -15 -34 -15 -71 0 -37 -5 -62 -15 -71 -10
-11 -15 -37 -15 -85 0 -49 -5 -75 -15 -85 -11 -11 -15 -37 -15 -90 0 -59 -3
-74 -15 -74 -12 0 -15 -14 -15 -69 0 -41 -4 -71 -11 -73 -6 -2 -13 -35 -16
-73 -3 -39 -10 -73 -15 -76 -6 -4 -13 -37 -15 -75 -3 -38 -10 -71 -14 -74 -5
-3 -11 -38 -15 -78 -4 -40 -10 -72 -14 -72 -4 0 -11 -38 -15 -85 -4 -47 -10
-85 -15 -85 -4 0 -11 -29 -15 -65 -3 -36 -10 -65 -14 -65 -5 0 -11 -34 -14
-77 -3 -42 -10 -79 -15 -82 -5 -3 -11 -37 -14 -75 -2 -42 -9 -71 -16 -74 -8
-2 -12 -29 -12 -78 0 -59 -3 -74 -15 -74 -12 0 -15 -14 -15 -70 0 -54 -4 -72
-15 -76 -12 -5 -15 -26 -15 -105 l0 -99 270 0 c261 0 271 1 291 21 12 12 24
39 26 60 3 21 9 39 13 39 4 0 11 45 15 100 3 55 10 100 14 100 5 0 11 44 14
97 3 55 10 99 16 101 6 2 11 10 11 18 0 12 37 14 220 14 140 0 220 -4 220 -10
0 -5 6 -10 14 -10 10 0 15 -19 18 -72 2 -44 9 -73 16 -76 8 -2 12 -29 12 -78
0 -59 3 -74 15 -74 12 0 15 -16 15 -85 0 -69 3 -85 15 -85 10 0 15 -10 15 -30
l0 -30 280 0 c235 0 280 2 280 14 0 8 5 16 12 18 14 5 14 78 0 87 -5 3 -12 42
-16 86 -3 44 -11 82 -16 83 -6 2 -10 30 -10 62 0 36 -5 64 -14 72 -8 8 -15 43
-18 83 -2 41 -9 70 -16 73 -8 2 -12 26 -12 63 0 46 -3 59 -15 59 -12 0 -15 15
-15 75 0 60 -3 75 -15 75 -12 0 -15 14 -15 69 0 52 -4 70 -15 75 -11 4 -15 22
-15 76 0 56 -3 70 -15 70 -12 0 -15 14 -15 69 0 52 -4 70 -15 75 -11 4 -15 22
-15 75 0 45 -4 71 -12 73 -7 3 -14 32 -16 74 -3 38 -9 72 -15 76 -6 3 -13 35
-15 70 -3 35 -8 65 -13 68 -4 3 -11 37 -15 75 -4 39 -11 72 -15 75 -5 3 -11
38 -15 78 -4 40 -10 72 -14 72 -4 0 -11 32 -14 70 -4 39 -11 70 -15 70 -5 0
-11 32 -14 72 -3 39 -10 74 -15 77 -5 3 -12 37 -15 76 -4 38 -11 71 -17 73 -5
2 -10 24 -10 48 0 31 -4 44 -14 44 -8 0 -17 11 -20 25 l-6 25 -380 0 c-247 0
-380 -4 -380 -10z m388 -731 c2 -40 8 -76 13 -80 6 -3 13 -43 16 -88 3 -44 9
-81 14 -81 4 0 10 -39 14 -87 4 -49 11 -90 16 -93 4 -3 11 -48 15 -100 4 -52
10 -97 14 -100 5 -3 11 -44 15 -92 l7 -88 -136 0 -136 0 0 115 c0 94 3 117 15
121 12 5 15 25 15 94 0 65 4 93 15 104 11 10 15 37 15 96 0 59 4 86 15 96 11
12 15 39 15 105 0 50 4 89 10 89 5 0 12 16 16 35 11 60 29 34 32 -46z"/>
<path d="M20920 9740 c0 -5 -7 -10 -15 -10 -8 0 -15 -7 -15 -15 0 -8 -7 -15
-15 -15 -13 0 -15 -146 -15 -1250 0 -810 3 -1250 10 -1250 5 0 12 -11 16 -25
l6 -25 259 0 c230 0 261 2 279 17 11 10 20 23 20 30 0 7 5 13 10 13 7 0 10
176 10 509 0 280 3 516 6 525 5 14 28 16 155 16 135 0 151 -2 169 -20 19 -19
20 -37 22 -532 l3 -513 23 -23 c22 -22 26 -22 272 -22 237 0 251 1 270 20 20
20 20 33 20 1285 l0 1265 -25 6 c-14 3 -25 10 -25 15 0 5 -110 9 -250 9 -160
0 -250 -4 -250 -10 0 -5 -6 -10 -14 -10 -7 0 -16 -14 -20 -31 -3 -17 -6 -235
-6 -484 l0 -453 -22 -6 c-13 -3 -53 -6 -89 -6 -37 0 -91 -5 -120 -10 -71 -14
-107 -5 -115 26 -3 13 -10 24 -15 24 -5 0 -9 192 -9 448 0 246 -3 457 -6 470
-4 15 -14 22 -30 22 -13 0 -24 5 -24 10 0 6 -85 10 -235 10 -150 0 -235 -4
-235 -10z"/>
</g>
</svg>
